<?xml version="1.0" encoding="utf-8"?>
<!-- Generator: Adobe Illustrator 23.0.3, SVG Export Plug-In . SVG Version: 6.00 Build 0)  -->
<svg version="1.1" id="Layer_1" xmlns="http://www.w3.org/2000/svg" xmlns:xlink="http://www.w3.org/1999/xlink" x="0px" y="0px"
	 viewBox="0 0 69.6 69.6" style="enable-background:new 0 0 69.6 69.6;" xml:space="preserve">
<style type="text/css">
	.st0{fill:#28B0EE;}
	.st1{fill:#00A25F;}
	.st2{fill:#BBAA7C;}
	.st3{fill:#010101;}
	.st4{fill:#020202;}
	.st5{fill:#3ACE01;}
	.st6{fill:#040404;}
	.st7{fill:#050505;}
	.st8{fill:#00B3F6;}
	.st9{fill:#0456B8;}
	.st10{fill:#0354BD;}
	.st11{fill:#9FDA55;}
	.st12{fill:#FFAA0C;}
	.st13{fill:#E81D52;}
	.st14{fill:#FF563B;}
	.st15{fill:#F50028;}
	.st16{fill:#FFA116;}
	.st17{fill:url(#SVGID_1_);}
	.st18{fill:url(#SVGID_2_);}
	.st19{fill:url(#SVGID_3_);}
	.st20{fill:url(#SVGID_4_);}
	.st21{fill:url(#SVGID_5_);}
	.st22{fill:url(#SVGID_6_);}
	.st23{fill:url(#SVGID_7_);}
	.st24{fill:url(#SVGID_8_);}
	.st25{fill:url(#SVGID_9_);}
</style>
<g>
	<path d="M35.2,66.8c-4.1,0-8.2-0.8-12-2.3C22.1,64,21.1,64,20,64.4c-3.6,1.2-7.2,2.2-10.7,3.4c-1.6,0.6-3,0.4-3.6-1.3
		c-0.6-1.7,0.6-2.5,2.1-2.9c4.1-1.3,8.3-2.6,12.4-4c1.5-0.5,2.8-0.1,4.2,0.5C43.6,68,64,53.9,62.9,33.2
		c-0.6-11.1-6.4-19.2-16.5-23.7c-9.9-4.4-19.6-3.2-28.1,3.6C7.8,21.6,4.9,33.9,10.3,46.5c0.7,1.6,2.1,3.5-0.2,4.6
		c-2.5,1.2-3.1-1.3-3.9-2.9C-2.1,29,8,8.3,28.1,3.4c17.4-4.2,34.7,6.8,38.7,24.7c3.8,17-7.6,34.6-24.7,38.1
		C39.8,66.6,37.5,66.8,35.2,66.8z"/>
	<path d="M44.5,51.3c-4.5-0.7-8.9-3.1-13.1-6c-5.4-3.8-9.3-9-12.2-14.9c-1.4-3-1.3-5.8,0.9-8.3c3-3.3,6.3-3.4,9.5-0.2
		c1.4,1.4,2.6,2.9,3.5,4.7c1.2,2.3,0.5,4.9-1.6,6.2c-0.9,0.6-1.8,0.6-2.6,0c-0.9-0.7-1.1-1.6-0.6-2.7c0.8-1.7-1.3-5.7-3-5.9
		c-1.3-0.1-2.1,0.9-2.4,2.2c-0.2,0.9,0.1,1.7,0.5,2.5c4.2,8.5,10.7,14.4,19.7,17.6c0.8,0.3,1.7,0.4,2.5,0.2c1-0.2,1.5-1,1.9-1.9
		c0.4-1-0.5-1.4-1.1-1.8c-1.7-1-3.1-3.4-5.6-1.1c-0.6,0.6-1.7,0.2-2.3-0.5c-0.6-0.7-0.8-1.4-0.5-2.3c0.9-2.2,3.3-3.5,5.6-2.7
		c2.6,0.8,4.7,2.4,6.7,4.1c2,1.8,2.1,3.9,1.1,6.3C50.4,49.5,47.9,51.3,44.5,51.3z"/>
</g>
</svg>
